<svg version="1.2" xmlns="http://www.w3.org/2000/svg" viewBox="0 0 423 132" width="516" height="161">
	<title>techcom logotype</title>
	<style>
		.s0 { fill: #171b26 } 
		.s1 { fill: #d61ad9 } 
	</style>
	<path id="TECHCOM" class="s0" aria-label="TECHCOM"  d="m43.3 100h-13v-53.4h-17.9v-11.7h48.8v11.7h-17.9zm39.9 0.4q-2.1 0-4.8-0.3-2.7-0.5-5.3-1.9-2.4-1.4-4.1-4.2-1.6-2.9-1.6-7.9v-36.4q0-4.3 1.3-7.2 1.3-2.9 3.5-4.6 2.2-1.6 4.9-2.3 2.6-0.7 5.2-0.7 6.6 0 11.6 0.1 5.1 0.2 9.1 0.5 4.1 0.2 7.4 0.5v10.9h-24.2q-2.8 0-4.3 1.3-1.5 1.4-1.5 4.1v9.4l25.8 0.7v10.3l-25.8 0.7v9q0 2.3 0.7 3.6 0.8 1.2 2.1 1.8 1.3 0.4 2.7 0.4h24.5v10.9q-3.8 0.4-8.6 0.7-4.6 0.3-9.5 0.4-4.7 0.2-9.1 0.2zm58.7 0.1q-5.8 0-10.2-1.3-4.3-1.3-7.4-4.8-2.9-3.6-4.5-10.1-1.5-6.6-1.5-17.1 0-10.1 1.6-16.5 1.6-6.5 4.7-10 3.1-3.6 7.5-5 4.4-1.5 9.9-1.5 4.4 0 8.2 0.6 3.9 0.4 7 1.1 3 0.6 5.2 1.4v10.1q-1.6-0.3-4.4-0.7-2.6-0.3-6-0.5-3.5-0.2-7.2-0.2-3.7 0-6.4 0.8-2.5 0.8-4.1 3.1-1.5 2.2-2.3 6.4-0.7 4.3-0.7 11 0 6.5 0.6 10.8 0.7 4.2 2.2 6.6 1.5 2.3 4.1 3.2 2.6 0.9 6.6 0.9 6.6 0 10.8-0.3 4.2-0.2 6.8-0.6v10.1q-2.4 0.8-5.5 1.4-3.1 0.5-6.8 0.8-3.7 0.3-8.2 0.3zm42.6-0.5h-13v-65.1h13v27.1h24.6v-27.1h13.1v65.1h-13.1v-26.3h-24.6z"/>
	<path id="TECHCOM" class="s1" aria-label="TECHCOM"  d="m255.3 100.5q-5.7 0-10.1-1.3-4.3-1.3-7.4-4.8-3-3.6-4.6-10.1-1.5-6.6-1.5-17 0-10.2 1.6-16.6 1.7-6.5 4.7-10 3.1-3.6 7.5-5 4.4-1.4 10-1.4 4.4 0 8.1 0.5 3.9 0.4 7 1.1 3.1 0.7 5.2 1.4v10.2q-1.6-0.4-4.3-0.7-2.7-0.4-6.1-0.6-3.4-0.2-7.2-0.2-3.7 0-6.3 0.8-2.6 0.8-4.2 3.1-1.5 2.2-2.3 6.5-0.7 4.2-0.7 11 0 6.5 0.6 10.7 0.7 4.2 2.2 6.6 1.5 2.3 4.1 3.2 2.6 0.9 6.6 0.9 6.7 0 10.8-0.2 4.2-0.3 6.8-0.7v10.1q-2.4 0.8-5.5 1.4-3 0.5-6.7 0.9-3.7 0.2-8.3 0.2zm53.9 0q-6.7 0-11.7-1.2-5-1.3-8.4-4.8-3.4-3.5-5-10-1.7-6.5-1.7-17 0-10.4 1.7-17 1.7-6.6 5.1-10.1 3.3-3.5 8.3-4.8 5-1.3 11.7-1.3 6.7 0 11.7 1.3 5.1 1.3 8.4 4.8 3.3 3.5 5 10.1 1.7 6.6 1.7 17 0 10.5-1.7 17-1.7 6.5-5 10-3.3 3.5-8.4 4.8-5 1.2-11.7 1.2zm0-11.7q4 0 6.6-0.9 2.7-0.8 4.2-3 1.6-2.3 2.3-6.5 0.7-4.2 0.7-10.9 0-7-0.7-11.2-0.7-4.3-2.3-6.5-1.5-2.2-4.2-3-2.6-0.8-6.6-0.8-3.8 0-6.4 0.8-2.6 0.8-4.3 3-1.6 2.2-2.4 6.5-0.7 4.2-0.7 11.2 0 6.7 0.6 10.9 0.7 4.2 2.3 6.5 1.6 2.2 4.2 3 2.8 0.9 6.7 0.9zm45.4 11.2h-12.5l7.5-65.1h12.5l15 49.9 14.9-49.9h12.4l7.6 65.1h-12.6l-5.6-48 2 0.2-12.7 47.8h-12.3l-12.9-47.8 2.2-0.1z"/>
</svg>